PathFileType	4	(X/Y/Z)	C:/Users/beibeiliu/ov580/test_trc/User3\sequence.7_training_dense_left.trc
DataRate	CameraRate	NumFrames	NumMarkers	Units	OrigDataRate	OrigDataStartFrame	OrigNumFrames
120	120	23	19	mm	120	26	200
Frame#	Time	ThumbCMC			ThumbMCP			ThumbIP			ThumbTip			IndexMCP			IndexPIP			IndexTip			MiddleMCP			MiddlePIP			MiddleTip			RingMCP			RingPIP			RingTip			PinkyMCP			PinkyPIP			PinkyTip			BackHand1			BackHand2			BackHand3	
		X0	Y0	Z0	X1	Y1	Z1	X2	Y2	Z2	X3	Y3	Z3	X4	Y4	Z4	X5	Y5	Z5	X6	Y6	Z6	X7	Y7	Z7	X8	Y8	Z8	X9	Y9	Z9	X10	Y10	Z10	X11	Y11	Z11	X12	Y12	Z12	X13	Y13	Z13	X14	Y14	Z14	X15	Y15	Z15	X16	Y16	Z16	X17	Y17	Z17	X18	Y18	Z18	
25	0.208333	-153.68	-16.0903	-8.76395	-136.409	-32.9055	-34.4589	-130.292	-44.4661	-63.7711	-132.832	-54.7054	-84.4399	-165.978	19.9709	-81.7822	-160.991	8.7597	-110.456	-162.772	-13.8372	-127.942	-188.798	26.4731	-83.6507	-187.334	16.712	-114.622	-193.41	-12.477	-135.271	-214.012	4.08389	-77.2237	-214.63	-26.9803	-88.6149	-208.76	-50.4503	-64.8199	-224.588	-10.072	-62.8817	-219.199	-37.1448	-59.4119	-209.229	-39.2498	-31.7697	-210.635	22.0068	-17.3894	-205.662	16.0947	8.71348	-176.818	16.4849	-7.51023	
26	0.216667	-145.27	-26.1712	-9.33402	-132.505	-48.2242	-30.1367	-129.301	-64.6131	-53.2207	-132.85	-79.4192	-70.9265	-158.222	-10.2112	-82.1662	-159.528	-24.8519	-109.749	-160.843	-50.1318	-121.372	-187.98	-3.86073	-89.7295	-183.641	-20.4874	-114.493	-187.554	-51.8716	-129.075	-205.723	-22.917	-78.2799	-207.642	-55.0507	-81.0488	-199.928	-71.9779	-52.5467	-224.427	-30.2724	-59.2938	-212.985	-55.9869	-51.9385	-203.78	-54.9502	-24.9195	-206.673	8.70489	-28.6616	-204.649	10.5903	6.59801	-170.383	6.10792	-14.9519	
27	0.225	-146.466	-33.7207	-5.22114	-128.306	-59.6499	-17.2517	-120.662	-83.5374	-39.7147	-120.533	-103.49	-52.1214	-161.199	-39.6128	-79.6915	-153.532	-64.9555	-101.709	-159.453	-90.852	-106.537	-182.585	-38.7328	-88.59	-185.328	-61.9218	-108.619	-182.724	-100.105	-112.165	-207.058	-52.161	-70.1498	-204.884	-85.2717	-63.9166	-198.444	-93.5086	-35.9544	-223.697	-56.6032	-51.6629	-211.506	-77.8758	-41.4501	-198.57	-67.738	-15.0421	-201.486	-9.70465	-30.3155	-203.82	-0.808776	1.09327	-171.517	-6.86578	-21.1568	
28	0.233333	-140.248	-33.4199	-3.43989	-126.812	-57.5279	-8.51035	-113.572	-83.0626	-21.7645	-110.086	-104.09	-30.2005	-153.074	-58.677	-75.2257	-146.357	-84.0503	-87.4314	-144.521	-117.266	-84.9655	-175.773	-58.3823	-79.1309	-171.549	-89.4445	-96.2064	-170.078	-120.633	-90.3266	-196.097	-75.5312	-61.8022	-188.99	-104.028	-50.4501	-181.975	-105.971	-20.8968	-211.79	-74.6925	-44.1742	-199.346	-93.4893	-24.9391	-188.031	-76.3289	-3.05478	-205.1	-23.5208	-35.6542	-203.762	-6.29804	-3.23565	-171.859	-10.7397	-21.8127	
29	0.241667	-140.07	-21.5266	3.16882	-118.994	-45.286	-2.42556	-95.2933	-64.5933	-6.96722	-87.3175	-87.9848	-12.3876	-141.203	-59.8755	-65.7529	-123.443	-85.5088	-73.3679	-111.739	-113.241	-62.5343	-163.369	-69.9141	-73.9502	-148.553	-97.8946	-81.5187	-134.434	-129.855	-66.1065	-177.034	-84.2817	-52.5556	-165.376	-108.89	-38.1235	-160.805	-107.898	-6.81492	-191.698	-85.6204	-35.1996	-175.97	-99.1509	-13.8948	-169.671	-77.3156	5.17016	-196.745	-30.9716	-31.7062	-203.991	-15.5492	-7.57514	-171.257	-11.0297	-22.1868	
30	0.25	-144.686	-8.83546	-0.315589	-111.989	-19.4137	-0.681067	-91.3895	-35.1322	-2.73521	-73.3308	-54.3953	-7.54033	-123.559	-47.9895	-63.0923	-106.098	-67.9203	-65.7654	-85.6351	-90.7339	-49.9979	-146.364	-65.2068	-65.3353	-121.691	-89.1571	-70.9086	-101.246	-109.576	-52.6999	-154.23	-83.742	-47.2264	-136.277	-101.853	-28.2077	-127.232	-90.9176	0.270438	-167.116	-89.4983	-26.4947	-150.92	-93.7031	-6.37489	-149.978	-67.852	15.46	-195.527	-42.0813	-33.2847	-207.957	-24.32	-7.38124	-177.379	-10.8861	-24.3589	
31	0.258333	-158.773	11.3762	-2.67469	-123.382	13.6332	-4.32265	-98.7479	6.99148	-9.36197	-73.2771	-0.027747	-12.6767	-126.4	-26.6999	-65.1779	-98.7452	-31.9609	-68.0378	-72.6249	-41.1514	-53.2461	-133.838	-48.0707	-66.9983	-104.189	-58.6179	-69.1569	-73.6057	-66.0864	-51.6646	-139.475	-67.3206	-42.0457	-113.386	-72.1267	-29.8197	-107.254	-59.1636	1.59607	-148.549	-76.5618	-22.112	-126.804	-71.3678	-1.3151	-132.622	-51.7264	16.0994	-191.201	-43.1314	-29.78	-207.919	-29.1995	-4.41828	-184.169	-4.98781	-25.8658	
32	0.266667	-179.929	25.8364	-7.09616	-151.872	40.5193	-11.4318	-124.105	49.8273	-18.765	-100.465	47.0167	-24.6154	-144.151	3.80107	-67.8189	-112.169	6.86961	-75.3535	-84.5516	10.0519	-64.7198	-139.316	-23.7973	-67.163	-108.006	-20.5924	-76.4058	-75.7001	-11.1074	-62.1825	-131.565	-36.3598	-45.0201	-104.442	-31.6627	-32.5128	-102.594	-16.0173	-3.35072	-132.103	-49.4918	-21.6194	-116.361	-31.5545	-7.09158	-130.09	-15.4255	14.9623	-186.583	-40.5657	-27.843	-206.824	-32.3257	-1.40163	-197.701	-7.63339	-22.8984	
33	0.275	-203.672	36.8402	-8.30054	-181.953	60.874	-18.1291	-157.693	77.9036	-30.8785	-139.611	83.8921	-35.4521	-161.137	22.1168	-71.5172	-137.029	37.9745	-83.7975	-113.115	55.1487	-77.3862	-148.23	4.01534	-73.4169	-123.697	16.2573	-84.7354	-97.2091	36.9653	-78.6837	-132.637	-3.06887	-49.5447	-111.02	12.204	-39.9838	-112.343	29.7387	-10.2253	-124.806	-12.6307	-26.6869	-119.57	8.655	-12.7931	-131.949	18.1702	11.253	-182.656	-26.9429	-27.4126	-198.847	-29.6569	-2.19986	-205.566	-4.44664	-23.8748	
34	0.283333	-216.863	34.2831	-7.20245	-209.596	65.3768	-19.8772	-195.035	85.273	-35.2647	-177.43	98.2329	-47.0873	-181.988	32.9528	-74.5553	-163.076	57.0953	-91.4669	-149.099	76.4501	-91.5387	-161.338	19.246	-78.9849	-142.33	39.3633	-93.9277	-123.694	70.3395	-92.8344	-140.403	18.0271	-55.0148	-126.912	47.4883	-51.1499	-130.166	63.6626	-21.8079	-131.189	12.1853	-32.1961	-129.352	40.9789	-20.638	-147.041	45.2349	2.05155	-176.798	-16.8794	-25.5165	-189.312	-24.1632	5.09055	-204.871	-4.32529	-20.3893	
35	0.291667	-224.025	25.857	-4.74967	-223.308	53.7847	-26.0994	-217.75	73.6713	-42.5185	-205.987	90.7693	-57.2056	-197.133	25.1094	-79.573	-190.673	51.8242	-100.286	-180.249	73.5109	-102.982	-169.489	15.2899	-83.3444	-163.984	38.8028	-103.253	-154.48	71.5033	-109.509	-149.233	23.5656	-62.8054	-142.697	55.8387	-63.1244	-148.815	72.8755	-38.8554	-136.725	27.6984	-43.9773	-142.103	53.0637	-31.567	-154.081	52.5448	-7.26726	-169.46	-16.6691	-27.2107	-177.48	-23.9684	4.59035	-202.898	-8.81947	-16.073	
36	0.3	-227.805	6.11746	-4.68228	-231.57	29.7684	-28.1816	-233.952	48.2112	-47.4947	-232.626	67.1122	-67.4736	-204.992	-0.850859	-80.9588	-205.625	17.0243	-103.772	-200.078	44.6856	-113.045	-183.399	-7.8818	-84.2941	-183.527	10.554	-109.137	-174.793	43.1738	-120.728	-161.083	5.44557	-68.9741	-158.649	34.7456	-77.2293	-167.407	59.7826	-51.229	-148.965	15.6975	-53.3081	-155.525	39.7562	-46.1052	-165.828	42.2707	-17.2064	-167.931	-29.0847	-23.8878	-173.538	-33.9349	4.15179	-202.31	-26.1445	-14.0885	
37	0.308333	-234.921	-17.6098	-2.38857	-244.687	1.35249	-28.1632	-251.323	16.2514	-47.6778	-254.322	30.5052	-70.0213	-223.42	-35.8237	-80.0114	-228.22	-20.5273	-104.13	-228.691	5.49574	-115.972	-199.481	-42.736	-79.5814	-202.88	-28.8559	-109.25	-200.087	1.16875	-125.821	-177.475	-26.2257	-71.8721	-181.53	4.85317	-85.0033	-182.603	30.5798	-61.2749	-161.506	-16.6936	-56.8553	-168.324	12.3029	-56.0751	-181.137	20.3121	-32.7178	-182.611	-52.1233	-18.8953	-176.572	-52.3521	9.86309	-214.807	-50.5525	-8.94421	
38	0.316667	-248.591	-38.5189	4.32339	-262.377	-21.0732	-21.9559	-271.595	-11.821	-47.6562	-270.096	-4.36407	-68.6316	-252.797	-74.0532	-62.468	-262.596	-62.9344	-92.9489	-256.493	-42.1642	-111.964	-234.254	-82.9431	-67.8817	-236.138	-75.634	-100.616	-232.314	-48.2796	-125.711	-208.517	-67.4596	-68.7796	-206.111	-42.319	-87.1211	-204.235	-12.7272	-73.0434	-188.964	-54.9616	-58.2699	-189.072	-27.9473	-62.1762	-195.49	-11.2774	-34.2553	-201.19	-80.6341	-11.0178	-200.126	-74.7101	17.1763	-235.157	-74.1542	4.72024	
39	0.325	-264.18	-46.9998	8.70174	-271.898	-35.15	-19.0079	-285.308	-27.2438	-48.9271	-288.201	-24.7171	-74.9456	-288.642	-94.499	-51.0096	-297.024	-89.7838	-75.7143	-290.243	-71.0037	-102.124	-270.688	-111.36	-54.7648	-277.423	-106.83	-85.8542	-271.168	-90.1453	-111.931	-244.416	-99.682	-56.7476	-236.306	-79.7383	-80.783	-223.532	-48.6522	-74.2931	-220.02	-90.2411	-53.6567	-215.471	-64.5809	-60.2098	-213.231	-44.656	-37.1672	-236.533	-103.713	1.83119	-223.361	-92.0563	26.0549	-260.705	-81.7816	18.3517	
40	0.333333	-274.305	-32.1648	7.19374	-278.489	-27.0207	-23.1224	-288.083	-19.3987	-50.3581	-290.949	-19.4551	-75.6886	-319.862	-81.4479	-38.0354	-327.299	-76.3514	-65.839	-316.639	-70.9882	-91.8448	-310.739	-101.915	-38.5324	-318.902	-101.782	-68.4622	-308.653	-87.951	-100.893	-280.152	-106.402	-44.9831	-270.27	-94.9194	-72.1162	-246.665	-68.1906	-71.2758	-257.801	-105.461	-40.1533	-240.994	-86.7112	-54.5293	-230.697	-63.1223	-39.3965	-269.566	-104.619	10.7902	-252.195	-90.8133	35.5727	-281.258	-71.098	25.8945	
41	0.341667	-267.558	-13.9029	5.09673	-267.722	-11.8721	-24.6	-277.083	-4.70732	-58.2645	-282.144	-11.4036	-80.1431	-331.375	-40.1006	-30.3504	-341.787	-38.27	-57.9941	-331.34	-42.3184	-85.981	-334.922	-66.1299	-31.3316	-343.399	-65.6106	-61.5552	-328.214	-68.8183	-94.1734	-308.561	-85.2839	-35.9153	-295.765	-79.9504	-64.3179	-264.69	-68.2468	-66.6115	-286.376	-96.2255	-33.9871	-265.25	-84.0325	-48.1398	-242.298	-68.376	-32.6239	-294.479	-77.2601	19.1762	-272.192	-69.4204	39.8727	-288.259	-40.2084	28.0714	
42	0.35	-252.919	0.709243	-0.611205	-249.119	8.27951	-30.8105	-257.588	7.56242	-61.5949	-261.45	3.17587	-82.4369	-319.63	7.50855	-33.1404	-328.806	9.62554	-65.4809	-319.088	0.981367	-93.7714	-334.584	-16.5257	-35.1946	-342.407	-17.3504	-64.9025	-326.004	-24.2577	-99.2766	-317.794	-46.0297	-36.6607	-302.705	-54.4803	-64.2974	-270.779	-53.5937	-65.2929	-303.175	-65.3554	-32.7192	-278.875	-63.3767	-47.1268	-254.227	-56.4705	-32.4003	-301.035	-40.8706	20.1028	-278.34	-44.523	39.9409	-281.243	-11.62	24.8526	
43	0.358333	-227.115	15.9749	-2.58544	-223.847	18.2397	-33.4372	-222.59	21.4973	-61.7944	-230.582	17.8955	-89.4135	-290.291	43.6017	-42.7738	-291.283	53.2158	-70.8163	-288.287	41.8768	-98.2608	-308.311	28.4762	-39.8108	-313.112	35.1666	-75.0062	-304.239	18.7365	-103.458	-305.214	-1.42365	-46.5752	-295.733	-14.4923	-69.7337	-265.934	-33.5436	-67.5142	-298.329	-23.2396	-39.7295	-276.617	-35.5286	-49.9855	-254.011	-38.2532	-33.4019	-292.197	-0.47409	11.9686	-275.258	-16.3922	36.5585	-259.957	17.2293	19.6633	
44	0.366667	-200.569	21.3181	-2.58215	-187.258	22.8393	-35.7626	-185.06	26.3903	-68.6146	-194.519	21.7091	-88.9342	-242.345	66.4472	-50.615	-243.889	73.4216	-79.478	-242.621	59.6045	-108.747	-264.786	60.3189	-47.9183	-270.896	65.3318	-79.3805	-264.43	48.2567	-113.066	-275.836	29.4715	-54.9346	-269.451	13.6156	-76.5592	-247.97	-14.446	-70.7487	-277.55	7.644	-42.2672	-257.15	-14.2504	-51.9857	-238.206	-17.9214	-28.8138	-265	27.7599	6.07026	-252.106	13.9935	29.5616	-230.706	39.7301	12.0298	
45	0.375	-167.052	22.5608	-5.90368	-154.131	18.5416	-37.1045	-150.409	15.486	-63.1743	-152.215	11.8319	-85.5736	-195.616	69.8366	-60.2736	-192.203	71.6079	-91.0783	-192.292	58.3385	-116.318	-220.813	70.3628	-60.8211	-225.3	70.5382	-93.6944	-221.077	54.1991	-121.593	-233.96	44.6589	-60.3018	-232.84	24.5946	-82.6076	-218.18	-8.25569	-72.3083	-244.258	19.3945	-52.589	-232.116	-4.86822	-54.6321	-217.735	-10.8674	-30.5594	-234.087	41.8557	-0.161463	-222.995	29.4673	27.1027	-195.858	45.0532	8.02969	
46	0.383333	-136.221	18.8467	-6.72046	-120.78	8.40608	-32.5713	-117.108	3.87617	-60.2253	-123.908	-1.22145	-85.3959	-157.561	60.355	-64.8881	-154.631	60.3977	-93.9356	-157.027	44.4737	-119.974	-181.558	64.6763	-67.6067	-183.009	62.5492	-101.726	-183.827	43.0975	-127.05	-205.658	40.635	-64.0035	-199.99	19.2038	-87.153	-193.894	-11.9233	-74.589	-214.073	18.3594	-56.7265	-203.84	-4.07292	-58.5625	-193.83	-9.01885	-30.5294	-198.599	46.1894	-7.48148	-195.852	32.045	22.7691	-163.54	43.636	3.46487	
47	0.391667	-113.814	9.72095	-3.10073	-103.518	-0.395639	-29.5794	-90.6149	-7.54281	-58.8574	-93.7134	-15.4622	-80.4188	-131.927	50.3267	-69.3374	-126.158	47.0152	-94.2946	-125.813	31.3351	-120.931	-158.066	53.5927	-67.3129	-159.974	51.2536	-101.251	-156.781	29.3211	-129.153	-179.829	31.024	-69.1242	-176.387	8.93278	-86.4037	-170.208	-22.3098	-71.7952	-190.726	13.8413	-54.2225	-181.679	-12.9018	-55.0767	-170.74	-12.4223	-26.6265	-176.354	38.4524	-7.13298	-172.411	32.4543	19.0989	-140.893	39.2948	3.14572	
